<?xml version="1.0" encoding="UTF-8"?>
<svg id="_レイヤー_2" data-name="レイヤー 2" xmlns="http://www.w3.org/2000/svg" viewBox="0 0 1118.57 1062">
  <defs>
    <style>
      .cls-1 {
        fill: none;
        stroke: #fff;
        stroke-linecap: round;
        stroke-miterlimit: 10;
        stroke-width: 18px;
      }

      .cls-2, .cls-3 {
        stroke-width: 0px;
      }

      .cls-3 {
        fill: #fff;
      }
    </style>
  </defs>
  <g id="_レイヤー_1-2" data-name="レイヤー 1">
    <g>
      <g>
        <path class="cls-3" d="m410.11,403.06c0,32.44-34.09,53.33-84.12,53.33h-110.24v-4.4h21.99v-178.7l-24.47-14.85h99.25c54.16,0,86.32,14.85,86.32,45.36,0,23.37-17.59,38.76-60.76,46.46,43.16,2.75,72.03,21.72,72.03,52.78Zm-111.89-140.21v85.77h4.95c22.27,0,32.44-14.85,32.44-42.89,0-23.64-7.42-42.89-32.99-42.89h-4.4Zm48.66,141.03c0-34.09-17.87-50.86-40.96-50.86h-7.7v98.97h5.77c30.52,0,42.89-15.94,42.89-48.11Z"/>
        <path class="cls-3" d="m424.96,451.99h13.75v-163.58l-15.67-13.47,70.65-24.74v201.79h13.75v4.4h-82.48v-4.4Z"/>
        <path class="cls-3" d="m522.17,392.76c-3.03-39.2,25.25-72.82,69.93-76.27,45.23-3.5,79.96,21.39,83.29,64.42,3.1,40.02-19.92,74.06-71.99,78.09-39.47,3.05-77.81-22.11-81.23-66.24Zm121.32,39.15c-1.78-23.02-54.46-105.26-78.59-103.39-6.85.53-10.58,5.78-9.92,14.28,2.08,26.86,55.88,105.7,78.35,103.96,7.4-.57,10.88-5.53,10.16-14.85Z"/>
        <path class="cls-3" d="m695.09,392.8c-3.05-39.19,25.22-72.83,69.9-76.3,45.22-3.52,79.97,21.35,83.32,64.39,3.11,40.02-19.88,74.07-71.96,78.12-39.47,3.07-77.82-22.07-81.25-66.2Zm121.34,39.09c-1.79-23.02-54.51-105.23-78.63-103.36-6.85.53-10.58,5.79-9.92,14.28,2.09,26.86,55.92,105.67,78.4,103.93,7.4-.58,10.88-5.53,10.15-14.85Z"/>
        <path class="cls-3" d="m1118.57,451.99v4.4h-79.73v-4.4h11v-82.75c0-21.44-3.3-28.59-15.12-28.59-5.77,0-11.55,1.37-17.04,4.12.55,3.85.83,7.97.83,12.65v94.57h11v4.4h-76.98v-4.4h11v-82.75c0-21.44-3.3-28.59-15.12-28.59-5.5,0-11,1.1-16.22,3.57v107.77h11v4.4h-79.73v-4.4h13.75v-100.34l-15.67-13.47,70.65-24.74v27.49c22.27-17.87,36.84-26.12,52.23-26.12,18.69,0,29.14,9.35,32.71,27.22,23.09-18.69,37.94-27.22,53.61-27.22,23.37,0,34.09,14.57,34.09,42.61v94.57h13.75Z"/>
      </g>
      <g>
        <path class="cls-3" d="m520.61,584.87h-.28c-20.62-47.29-43.71-69.83-68.45-72.85v188.87h24.74v4.4h-109.97v-4.4h24.74v-188.87c-24.47,3.02-47.56,25.57-68.18,72.85h-.27v-77.53h197.67v77.53Z"/>
        <path class="cls-3" d="m703.16,700.89v4.4h-79.73v-4.4h11v-82.75c0-21.44-5.22-28.59-16.5-28.59-5.5,0-11,1.65-16.5,4.12v107.22h11v4.4h-79.73v-4.4h13.75v-163.58l-15.67-13.47,70.65-24.74v90.72c17.87-15.39,33.81-26.12,52.51-26.12,23.37,0,35.46,14.57,35.46,42.61v94.57h13.75Z"/>
        <path class="cls-3" d="m854.9,657.25c-5.09,20.42-19.21,35.84-43.34,44.28-36.59,12.8-75.59-2.11-89.66-42.33-13.25-37.89,1.2-78.18,42.72-92.7,24.39-8.53,46.25-.16,52.88,18.79,7.53,21.54-2.45,46.29-29.51,68.86,19.87,9.36,41.92,12.43,59.3,6.34,2.59-.91,5.1-2.08,7.25-3.41l.35.17Zm-116.52-54.19c7.53,21.54,26.32,39.43,47.51,50.08,4-11.88,3.22-23.26-1.41-36.5-7.9-22.58-29.66-36.52-40.82-32.61-6.75,2.36-8.64,9.43-5.28,19.03Z"/>
      </g>
      <g>
        <path class="cls-3" d="m616.08,878.83v73.68h21.99v4.4h-104.47v-4.4h21.99v-57.73l-60.21-120.96-21.72-14.85h112.44l-24.47,14.85,50.86,101.72,32.99-101.72-29.97-14.85h78.35l-24.47,14.85-53.33,105.02Z"/>
        <path class="cls-3" d="m819.67,912.15c-6,20.17-20.79,34.95-45.28,42.31-37.12,11.15-75.42-5.48-87.68-46.29-11.55-38.44,4.69-78.05,46.81-90.71,24.75-7.43,46.21,1.91,51.99,21.13,6.56,21.85-4.51,46.14-32.55,67.48,19.44,10.24,41.32,14.28,58.96,8.98,2.63-.79,5.19-1.85,7.4-3.08l.34.18Zm-113.99-59.34c6.56,21.85,24.53,40.57,45.23,52.15,4.53-11.69,4.26-23.1.22-36.52-6.88-22.91-28.01-37.8-39.33-34.4-6.85,2.06-9.05,9.03-6.13,18.78Z"/>
        <path class="cls-3" d="m977.87,952.51v4.4h-68.73v-15.67c-12.92,11-27.49,18.42-42.61,18.42-17.87,0-29.97-10.17-29.97-27.49,0-25.29,26.94-42.06,72.58-47.01,0-30.24-12.1-45.36-32.99-45.36-12.37,0-20.89,3.3-30.24,10.45l-1.37-1.38c18.69-20.89,39.04-32.17,66.53-32.17,34.64,0,53.06,19.79,53.06,59.66v76.15h13.75Zm-68.73-15.12v-48.66c-16.5,4.67-22.82,15.12-22.82,29.69,0,12.92,5.5,19.79,16.5,19.79,1.65,0,3.85-.28,6.32-.83Z"/>
        <path class="cls-3" d="m1108.18,817.25v72.85h-.27c-28.59-31.62-41.51-38.76-51.13-37.11v99.52h20.62v4.4h-89.35v-4.4h13.75v-99.79l-15.67-13.47,70.65-23.64v34.36c15.67-20.62,33.54-33.54,46.19-33.54,1.92,0,3.57.27,5.22.82Z"/>
      </g>
      <path class="cls-1" d="m449.03,992.96c-231.03-219.46-228.39-240.83-222.21-399.65s-155.52-238.89-155.52-238.89"/>
      <circle class="cls-3" cx="22" cy="310" r="22"/>
      <circle class="cls-3" cx="507.5" cy="1040" r="22"/>
      <circle class="cls-2" cx="816.5" cy="9" r="9"/>
    </g>
  </g>
</svg>