<?xml version="1.0" encoding="UTF-8"?>
<svg id="line02" data-name="line02" xmlns="http://www.w3.org/2000/svg" viewBox="0 0 1185 314.44">
  <defs>
    <style>
      .cls-1 {
        fill: none;
        stroke: #aad7ef;
        stroke-linecap: round;
        stroke-miterlimit: 10;
        stroke-width: 20px;
      }
    </style>
  </defs>
  <g id="line02" data-name="line02">
    <path class="cls-1" d="m10,221.05c119.93,127.42,165.97,89.94,345.86,12.85s153.31-95.72,191.67-142.41c24.63-29.98,18.22-99.55-50.33-77.1-62.1,20.34-19.27,64.25-8.57,74.95,9.64,9.64,37.07,27.77,84.59,22.49,19.27-2.14,31.05,5.35,103.86-48.18,42.01-30.89,86.73,32.12,99.58,72.81,12,38,42.83,64.25,99.58,34.26,50.19-26.51,165.97-22.49,201.31-49.26,35.34-26.77,95.3-68.53,97.44-80.31"/>
  </g>
</svg>