<?xml version="1.0" encoding="UTF-8"?>
<svg id="_レイヤー_2" data-name="レイヤー 2" xmlns="http://www.w3.org/2000/svg" viewBox="0 0 987 1000.5">
  <defs>
    <style>
      .cls-1 {
        fill: #fff;
        stroke-width: 0px;
      }

      .cls-2 {
        fill: none;
        stroke: #fff;
        stroke-miterlimit: 10;
        stroke-width: 10px;
      }
    </style>
  </defs>
  <g id="_レイヤー_2-2" data-name="レイヤー 2">
    <g>
      <circle class="cls-1" cx="493.5" cy="320.5" r="194"/>
      <path class="cls-2" d="m493.5,561.5c170.17,0,321.74,71.39,419.42,182.56,43.86-73.26,69.08-158.97,69.08-250.56C982,223.71,763.29,5,493.5,5S5,223.71,5,493.5c0,91.6,25.22,177.3,69.08,250.56,97.69-111.17,249.25-182.56,419.42-182.56Z"/>
      <path class="cls-1" d="m493.5,1000.5c178.19,0,334.1-99.61,419.42-248.41-97.69-116.07-249.25-190.59-419.42-190.59s-321.74,74.53-419.42,190.59c85.33,148.79,241.23,248.41,419.42,248.41Z"/>
    </g>
  </g>
</svg>